<svg width="28" height="32" viewBox="0 0 28 32" fill="none" xmlns="http://www.w3.org/2000/svg">
<path d="M2.17838 31.3333H6.75317C7.57004 31.3333 8.23224 30.6872 8.23224 29.8902V23.5374V16.5411H0.69931V29.8902C0.69931 30.6872 1.36151 31.3333 2.17838 31.3333Z" fill="#FFB432"/>
<path d="M3.28768 0.666626H16.1687C19.5765 0.666626 22.3565 1.84006 24.4863 4.16477C26.6162 6.51163 27.6923 9.14632 27.6923 12.091C27.6923 15.102 26.5938 17.7588 24.4415 20.0614C22.2892 22.3861 19.4195 23.5374 15.8549 23.5374H8.23224C4.95163 23.5374 0.69931 20.0481 0.69931 16.5411V3.19212C0.69931 1.79733 1.85816 0.666626 3.28768 0.666626Z" fill="#129AFE"/>
<path d="M0.69931 16.5411L0.700628 16.5411L7.95995 16.5411C8.11033 16.5411 8.23224 16.6601 8.23224 16.8068V23.5374C4.95163 23.5374 0.69931 20.0481 0.69931 16.5411Z" fill="#0035FD"/>
</svg>
