<svg width="157" height="25" viewBox="0 0 157 25" fill="none" xmlns="http://www.w3.org/2000/svg">
<path d="M12.9759 1.15032V8.54576H4.4464V1.15032H0.787201V19.4982H4.4464V11.7957H12.9759V19.4982H16.6611V1.15032H12.9759Z" fill="#000D40"/>
<path d="M26.623 19.8692C28.2507 19.8692 29.6311 19.4982 30.764 18.7305C31.8969 17.9756 32.6913 17.0927 33.134 16.0947L29.9566 15.1735C29.3316 16.3506 28.2377 16.9264 26.6751 16.9264C25.5031 16.9264 24.5785 16.6577 23.9274 16.1075C23.2633 15.5574 22.8726 14.828 22.7554 13.9196H33.2382C33.2903 13.6381 33.3163 13.2287 33.3163 12.6913C33.3163 10.7337 32.6913 9.10873 31.4411 7.81645C30.191 6.52417 28.4982 5.87163 26.3495 5.87163C24.253 5.87163 22.5471 6.53696 21.2449 7.86763C19.9427 9.1983 19.2916 10.8616 19.2916 12.8704C19.2916 14.9688 19.9687 16.6705 21.323 17.95C22.6773 19.2295 24.4483 19.8692 26.623 19.8692ZM22.7554 11.7445C22.8596 10.9512 23.2242 10.2603 23.8753 9.67171C24.5264 9.09594 25.3338 8.80166 26.3235 8.80166C27.3392 8.80166 28.1596 9.08314 28.7977 9.64612C29.4227 10.2091 29.7873 10.9128 29.8785 11.7445H22.7554Z" fill="#000D40"/>
<path d="M45.2966 6.24268L41.5332 15.1991L37.5355 6.24268H33.6679L39.7753 19.2039L37.3271 25H40.9473L49.06 6.24268H45.2966Z" fill="#000D40"/>
<path d="M59.6469 1.15032H50.8961V19.4982H54.5293V13.894H59.4907C61.5091 13.894 63.1238 13.2543 64.3219 11.9748C65.5199 10.6953 66.1319 9.21109 66.1319 7.52217C66.1319 5.88442 65.5329 4.41301 64.3349 3.10793C63.1368 1.80285 61.5742 1.15032 59.6469 1.15032ZM59.3735 10.6953H54.5293V4.40022H59.5428C60.4022 4.40022 61.1315 4.72009 61.7044 5.34704C62.2774 5.98678 62.5769 6.71609 62.5769 7.54776C62.5769 8.39222 62.2774 9.12153 61.6784 9.74848C61.0794 10.3882 60.3111 10.6953 59.3735 10.6953Z" fill="#000D40"/>
<path d="M71.6533 8.2003V6.24268H68.1373V19.4982H71.6533V13.7277C71.6533 11.9876 72.0179 10.7593 72.7732 10.0428C73.5154 9.32625 74.6223 9.07035 76.1068 9.30066V6.05076C74.0233 5.76927 72.5388 6.48578 71.6533 8.2003Z" fill="#000D40"/>
<path d="M83.4903 19.8692C85.3395 19.8692 86.7849 19.2039 87.8267 17.8732V19.4982H91.3817V6.24268H87.8267V7.84204C86.7849 6.53696 85.3395 5.87163 83.4903 5.87163C81.6021 5.87163 80.0134 6.53696 78.7373 7.86763C77.4611 9.1983 76.823 10.8616 76.823 12.8704C76.823 14.8664 77.4611 16.5298 78.7373 17.8604C80.0134 19.2039 81.6021 19.8692 83.4903 19.8692ZM84.1024 16.7729C82.9955 16.7729 82.084 16.4146 81.3808 15.6725C80.6646 14.9432 80.313 13.9964 80.313 12.8448C80.313 11.7189 80.6646 10.7849 81.3808 10.0556C82.084 9.33904 82.9955 8.96799 84.1024 8.96799C85.1832 8.96799 86.0947 9.33904 86.837 10.0683C87.5662 10.8105 87.9439 11.7317 87.9439 12.8448C87.9439 13.9836 87.5662 14.9176 86.837 15.6597C86.0947 16.4018 85.1832 16.7729 84.1024 16.7729Z" fill="#000D40"/>
<path d="M101.187 19.8692C102.906 19.8692 104.352 19.4342 105.524 18.5641C106.696 17.6941 107.425 16.6833 107.737 15.5446L104.456 14.6489C104.3 15.2375 103.909 15.7365 103.31 16.1459C102.698 16.5681 101.982 16.7729 101.148 16.7729C100.067 16.7729 99.1819 16.389 98.5048 15.6085C97.8146 14.8408 97.476 13.9196 97.476 12.8448C97.476 11.7701 97.8146 10.8488 98.4918 10.0811C99.1689 9.32625 100.054 8.9424 101.148 8.9424C101.982 8.9424 102.711 9.15991 103.31 9.59494C103.909 10.03 104.3 10.5546 104.456 11.1431L107.737 10.2219C107.438 9.10873 106.696 8.11073 105.511 7.21509C104.326 6.31945 102.867 5.87163 101.148 5.87163C99.1038 5.87163 97.3979 6.53696 96.0436 7.86763C94.6893 9.1983 94.0122 10.8488 94.0122 12.8448C94.0122 14.8408 94.6893 16.5042 96.0436 17.8476C97.3979 19.2039 99.1168 19.8692 101.187 19.8692Z" fill="#000D40"/>
<path d="M118.012 16.2739C117.517 16.5298 116.983 16.6449 116.41 16.6449C115.303 16.6449 114.756 16.0947 114.756 14.9688V9.27507H118.702V6.24268H114.756V1.9436H111.214V6.24268H108.948V9.27507H111.214V14.9688C111.214 16.453 111.592 17.6173 112.347 18.449C113.103 19.2935 114.222 19.7029 115.72 19.7029C116.749 19.7029 117.803 19.4982 118.871 19.0759L118.012 16.2739Z" fill="#000D40"/>
<path d="M123.077 4.37463C123.663 4.37463 124.158 4.1827 124.575 3.79886C124.979 3.41501 125.187 2.9288 125.187 2.34024C125.187 1.77727 124.979 1.30385 124.575 0.920008C124.158 0.536162 123.663 0.344238 123.077 0.344238C122.491 0.344238 121.997 0.536162 121.593 0.920008C121.176 1.30385 120.981 1.77727 120.981 2.34024C120.981 2.91601 121.176 3.40222 121.593 3.78606C121.997 4.1827 122.491 4.37463 123.077 4.37463ZM121.267 19.4982H124.809V6.24268H121.267V19.4982Z" fill="#000D40"/>
<path d="M134.68 19.8692C136.399 19.8692 137.844 19.4342 139.016 18.5641C140.188 17.6941 140.918 16.6833 141.23 15.5446L137.949 14.6489C137.792 15.2375 137.402 15.7365 136.803 16.1459C136.191 16.5681 135.474 16.7729 134.641 16.7729C133.56 16.7729 132.675 16.389 131.998 15.6085C131.307 14.8408 130.969 13.9196 130.969 12.8448C130.969 11.7701 131.307 10.8488 131.985 10.0811C132.662 9.32625 133.547 8.9424 134.641 8.9424C135.474 8.9424 136.204 9.15991 136.803 9.59494C137.402 10.03 137.792 10.5546 137.949 11.1431L141.23 10.2219C140.931 9.10873 140.188 8.11073 139.003 7.21509C137.818 6.31945 136.36 5.87163 134.641 5.87163C132.597 5.87163 130.891 6.53696 129.536 7.86763C128.182 9.1983 127.505 10.8488 127.505 12.8448C127.505 14.8408 128.182 16.5042 129.536 17.8476C130.891 19.2039 132.61 19.8692 134.68 19.8692Z" fill="#000D40"/>
<path d="M150.307 19.8692C151.934 19.8692 153.315 19.4982 154.448 18.7305C155.58 17.9756 156.375 17.0927 156.818 16.0947L153.64 15.1735C153.015 16.3506 151.921 16.9264 150.359 16.9264C149.187 16.9264 148.262 16.6577 147.611 16.1075C146.947 15.5574 146.556 14.828 146.439 13.9196H156.922C156.974 13.6381 157 13.2287 157 12.6913C157 10.7337 156.375 9.10873 155.125 7.81645C153.875 6.52417 152.182 5.87163 150.033 5.87163C147.937 5.87163 146.231 6.53696 144.928 7.86763C143.626 9.1983 142.975 10.8616 142.975 12.8704C142.975 14.9688 143.652 16.6705 145.007 17.95C146.361 19.2295 148.132 19.8692 150.307 19.8692ZM146.439 11.7445C146.543 10.9512 146.908 10.2603 147.559 9.67171C148.21 9.09594 149.017 8.80166 150.007 8.80166C151.023 8.80166 151.843 9.08314 152.481 9.64612C153.106 10.2091 153.471 10.9128 153.562 11.7445H146.439Z" fill="#000D40"/>
</svg>
